<?xml version="1.0" encoding="UTF-8" standalone="no"?>
<!-- Generator: Adobe Illustrator 19.0.0, SVG Export Plug-In . SVG Version: 6.00 Build 0)  -->

<svg
   xmlns:dc="http://purl.org/dc/elements/1.1/"
   xmlns:cc="http://creativecommons.org/ns#"
   xmlns:rdf="http://www.w3.org/1999/02/22-rdf-syntax-ns#"
   xmlns:svg="http://www.w3.org/2000/svg"
   xmlns="http://www.w3.org/2000/svg"
   xmlns:sodipodi="http://sodipodi.sourceforge.net/DTD/sodipodi-0.dtd"
   xmlns:inkscape="http://www.inkscape.org/namespaces/inkscape"
   version="1.1"
   id="Layer_1"
   x="0px"
   y="0px"
   viewBox="0 0 473.935 473.935"
   style="enable-background:new 0 0 473.935 473.935;"
   xml:space="preserve"
   height="320px"
   width="320px"
   sodipodi:docname="bin.svg"
   inkscape:version="0.92.2 (5c3e80d, 2017-08-06)"><metadata
     id="metadata162"><rdf:RDF><cc:Work
         rdf:about=""><dc:format>image/svg+xml</dc:format><dc:type
           rdf:resource="http://purl.org/dc/dcmitype/StillImage" /></cc:Work></rdf:RDF></metadata><defs
     id="defs160" /><sodipodi:namedview
     pagecolor="#ffffff"
     bordercolor="#666666"
     borderopacity="1"
     objecttolerance="10"
     gridtolerance="10"
     guidetolerance="10"
     inkscape:pageopacity="0"
     inkscape:pageshadow="2"
     inkscape:window-width="1920"
     inkscape:window-height="1051"
     id="namedview158"
     showgrid="false"
     inkscape:zoom="6.703125"
     inkscape:cx="108.93383"
     inkscape:cy="76.35249"
     inkscape:window-x="-9"
     inkscape:window-y="-9"
     inkscape:window-maximized="1"
     inkscape:current-layer="Layer_1" /><circle
     style="fill:#B1C635;"
     cx="236.967"
     cy="236.967"
     r="236.967"
     id="circle87" /><polygon
     style="fill:#ffffff"
     points="319.047,380.547 154.858,380.547 113.814,121.956 360.091,121.956 "
     id="polygon89" /><polygon
     style="fill:#E0E0E0;"
     points="362.546,147.198 111.359,147.198 103.876,107.786 370.029,107.786 "
     id="polygon91" /><g
     id="g127" /><g
     id="g129" /><g
     id="g131" /><g
     id="g133" /><g
     id="g135" /><g
     id="g137" /><g
     id="g139" /><g
     id="g141" /><g
     id="g143" /><g
     id="g145" /><g
     id="g147" /><g
     id="g149" /><g
     id="g151" /><g
     id="g153" /><g
     id="g155" /><path
     style="fill:none;stroke:#ffffff;stroke-width:1.85130858px;stroke-linecap:butt;stroke-linejoin:miter;stroke-opacity:0"
     d="m 145.82615,324.24224 h 182.2827 L 319.04701,380.547 H 154.858 Z"
     id="path3853"
     inkscape:connector-curvature="0" /><path
     style="fill:none;stroke:#ffffff;stroke-width:1.85130858px;stroke-linecap:butt;stroke-linejoin:miter;stroke-opacity:0"
     d="m 145.82615,324.24224 h 182.2827 l 8.56176,-53.30387 -199.95859,-1.65711 z"
     id="path3855"
     inkscape:connector-curvature="0" /><path
     style="fill:#ffffff;stroke:#ffffff;stroke-width:1.85130858px;stroke-linecap:butt;stroke-linejoin:miter;stroke-opacity:0"
     d="m 136.71202,269.28126 -8.28558,-54.961 216.80594,1.38093 -8.56177,55.23718 z"
     id="path3857"
     inkscape:connector-curvature="0" /><path
     style="fill:none;stroke:#ffffff;stroke-width:1.85130858px;stroke-linecap:butt;stroke-linejoin:miter;stroke-opacity:0"
     d="m 128.42644,214.32026 -10.49506,-66.5608 238.34842,-0.55238 -11.04742,68.49411 z"
     id="path3859"
     inkscape:connector-curvature="0" /><g
     transform="translate(-0.26377899,12.541987)"
     id="g125"><path
       inkscape:connector-curvature="0"
       style="fill:#b1c635"
       d="m 186.146,301.607 h -0.007 c 0.745,0.445 1.658,0.76 2.72,0.905 v 0 c -1.062,-0.146 -1.968,-0.46 -2.713,-0.905 z"
       id="path93" /><path
       inkscape:connector-curvature="0"
       style="fill:#b1c635"
       d="m 188.859,302.512 c -0.906,-0.153 -1.826,-0.468 -2.713,-0.905 0.745,0.445 1.651,0.759 2.713,0.905 z"
       id="path95" /><path
       inkscape:connector-curvature="0"
       style="fill:#b1c635"
       d="m 173.578,240.672 9.807,5.706 -12.528,21.699 c -1.22,2.118 -1.22,5.691 0,7.809 l 11.738,20.322 c 0.191,-1.111 0.629,-2.26 1.295,-3.427 l 20.052,-34.589 9.777,5.65 -8.479,-31.659 z"
       id="path97" /><path
       inkscape:connector-curvature="0"
       style="fill:#b1c635"
       d="m 188.859,302.512 c 0.191,0.03 0.367,0.056 0.535,0.071 v -0.011 c -0.172,-0.011 -0.363,-0.03 -0.535,-0.06 z"
       id="path99" /><path
       inkscape:connector-curvature="0"
       style="fill:#b1c635"
       d="m 183.83,297.42 c -0.037,1.8 0.782,3.278 2.309,4.187 h 0.007 c -1.534,-0.909 -2.353,-2.387 -2.316,-4.187 z"
       id="path101" /><path
       inkscape:connector-curvature="0"
       style="fill:#b1c635"
       d="m 189.391,302.572 c -0.168,-0.011 -0.359,-0.03 -0.535,-0.06 v 0 c 0.175,0.03 0.366,0.049 0.535,0.06 z"
       id="path103" /><path
       inkscape:connector-curvature="0"
       style="fill:#b1c635"
       d="m 185.742,293.45 c -0.812,1.418 -1.212,2.761 -1.235,3.97 -0.045,1.8 0.782,3.278 2.316,4.187 0.883,0.438 1.796,0.752 2.713,0.905 0.176,0.03 0.359,0.049 0.535,0.06 l 1.893,0.045 h 34.372 v -9.635 -16.812 h -30.54 z"
       id="path105" /><path
       inkscape:connector-curvature="0"
       style="fill:#b1c635"
       d="m 237.697,227.295 31.622,8.58 8.58,-31.641 -9.86,5.605 -12.468,-21.74 c -1.212,-2.118 -4.303,-3.918 -6.754,-3.921 l -23.454,-0.079 c 0.861,0.73 1.639,1.688 2.301,2.859 l 19.828,34.713 z"
       id="path107" /><path
       inkscape:connector-curvature="0"
       style="fill:#b1c635"
       d="m 200.369,216.949 20.52,11.929 14.271,-24.554 -9.508,-16.7 c -0.666,-1.171 -1.471,-2.058 -2.316,-2.574 -1.126,-0.688 -2.301,-0.711 -3.435,-0.082 -0.629,0.419 -1.265,0.984 -1.755,1.568 -0.079,0.101 -0.168,0.228 -0.247,0.348 l -0.958,1.553 z"
       id="path109" /><path
       inkscape:connector-curvature="0"
       style="fill:#b1c635"
       d="m 303.968,270.546 c 0,0.004 0,0.004 0,0 0.007,-0.861 -0.183,-1.807 -0.591,-2.803 -0.015,0.004 0,0.004 0,0.004 0.408,0.992 0.598,1.939 0.591,2.799 z"
       id="path111" /><path
       inkscape:connector-curvature="0"
       style="fill:#b1c635"
       d="m 303.377,267.747 c 0.322,0.857 0.52,1.811 0.591,2.799 0.007,-0.86 -0.183,-1.807 -0.591,-2.799 z"
       id="path113" /><path
       inkscape:connector-curvature="0"
       style="fill:#b1c635"
       d="m 234.438,289.255 23.364,23.001 -0.052,-11.345 25.059,-0.198 c 2.44,-0.022 5.519,-1.83 6.732,-3.959 l 11.57,-20.408 c -1.059,0.397 -2.264,0.606 -3.611,0.614 l -39.989,0.251 -0.086,-11.304 z"
       id="path115" /><path
       inkscape:connector-curvature="0"
       style="fill:#b1c635"
       d="m 303.377,267.744 c -0.075,-0.176 -0.146,-0.341 -0.221,-0.501 l -0.015,0.011 c 0.09,0.164 0.161,0.329 0.236,0.49 z"
       id="path117" /><path
       inkscape:connector-curvature="0"
       style="fill:#b1c635"
       d="m 301.521,274.67 c 1.579,-0.883 2.432,-2.339 2.447,-4.12 0,0 0,0 0,-0.004 -0.008,1.785 -0.868,3.237 -2.447,4.124 z"
       id="path119" /><path
       inkscape:connector-curvature="0"
       style="fill:#b1c635"
       d="m 303.141,267.253 c 0.086,0.165 0.161,0.329 0.236,0.494 0,0 -0.015,0 0,-0.004 -0.075,-0.16 -0.146,-0.325 -0.236,-0.49 z"
       id="path121" /><path
       inkscape:connector-curvature="0"
       style="fill:#b1c635"
       d="m 297.487,275.268 c 1.631,-0.015 2.997,-0.352 4.034,-0.943 1.579,-0.883 2.44,-2.339 2.447,-4.12 -0.075,-0.988 -0.269,-1.942 -0.591,-2.795 -0.075,-0.168 -0.146,-0.329 -0.236,-0.498 l -0.913,-1.65 -17.422,-29.627 -8.288,4.879 -14.499,8.524 15.472,26.323 z"
       id="path123" /></g></svg>